<?xml version="1.0" encoding="utf-8"?>
<!-- Generator: Adobe Illustrator 16.0.3, SVG Export Plug-In . SVG Version: 6.00 Build 0)  -->
<!DOCTYPE svg PUBLIC "-//W3C//DTD SVG 1.1//EN" "http://www.w3.org/Graphics/SVG/1.1/DTD/svg11.dtd" [
	<!ENTITY ns_flows "http://ns.adobe.com/Flows/1.0/">
	<!ENTITY ns_extend "http://ns.adobe.com/Extensibility/1.0/">
	<!ENTITY ns_ai "http://ns.adobe.com/AdobeIllustrator/10.0/">
	<!ENTITY ns_graphs "http://ns.adobe.com/Graphs/1.0/">
	<!ENTITY ns_vars "http://ns.adobe.com/Variables/1.0/">
	<!ENTITY ns_imrep "http://ns.adobe.com/ImageReplacement/1.0/">
	<!ENTITY ns_sfw "http://ns.adobe.com/SaveForWeb/1.0/">
	<!ENTITY ns_custom "http://ns.adobe.com/GenericCustomNamespace/1.0/">
	<!ENTITY ns_adobe_xpath "http://ns.adobe.com/XPath/1.0/">
]>
<svg version="1.1" id="Layer_1" xmlns:x="&ns_extend;" xmlns:i="&ns_ai;" xmlns:graph="&ns_graphs;"
	 xmlns="http://www.w3.org/2000/svg" xmlns:xlink="http://www.w3.org/1999/xlink" xmlns:a="http://ns.adobe.com/AdobeSVGViewerExtensions/3.0/"
	 x="0px" y="0px" width="1000px" height="1000px" viewBox="0 0 1000 1000" enable-background="new 0 0 1000 1000"
	 xml:space="preserve">
<metadata>
	<sfw  xmlns="&ns_sfw;">
		<slices></slices>
		<sliceSourceBounds  width="910.917" height="947.287" y="-973.669" x="44.542" bottomLeftOrigin="true"></sliceSourceBounds>
	</sfw>
</metadata>
<g>
	<g>
		<line fill="none" stroke="#F5D235" stroke-miterlimit="10" x1="660.773" y1="761.984" x2="660.773" y2="866.991"/>
		<line fill="none" stroke="#F5D235" stroke-miterlimit="10" x1="673.575" y1="761.987" x2="673.575" y2="866.991"/>
		<line fill="none" stroke="#F5D235" stroke-miterlimit="10" x1="660.773" y1="768.026" x2="673.575" y2="768.026"/>
		<line fill="none" stroke="#F5D235" stroke-miterlimit="10" x1="660.773" y1="776.063" x2="673.575" y2="776.063"/>
		<line fill="none" stroke="#F5D235" stroke-miterlimit="10" x1="660.773" y1="784.095" x2="673.575" y2="784.095"/>
		<line fill="none" stroke="#F5D235" stroke-miterlimit="10" x1="660.773" y1="792.131" x2="673.575" y2="792.131"/>
		<line fill="none" stroke="#F5D235" stroke-miterlimit="10" x1="660.773" y1="800.163" x2="673.575" y2="800.163"/>
		<line fill="none" stroke="#F5D235" stroke-miterlimit="10" x1="660.773" y1="808.198" x2="673.575" y2="808.198"/>
		<line fill="none" stroke="#F5D235" stroke-miterlimit="10" x1="660.773" y1="816.231" x2="673.575" y2="816.231"/>
		<line fill="none" stroke="#F5D235" stroke-miterlimit="10" x1="660.773" y1="824.264" x2="673.575" y2="824.264"/>
		<line fill="none" stroke="#F5D235" stroke-miterlimit="10" x1="660.773" y1="832.3" x2="673.575" y2="832.3"/>
		<line fill="none" stroke="#F5D235" stroke-miterlimit="10" x1="660.773" y1="840.332" x2="673.575" y2="840.332"/>
		<line fill="none" stroke="#F5D235" stroke-miterlimit="10" x1="660.773" y1="848.368" x2="673.575" y2="848.368"/>
		<line fill="none" stroke="#F5D235" stroke-miterlimit="10" x1="660.773" y1="856.4" x2="673.575" y2="856.4"/>
		<line fill="none" stroke="#F5D235" stroke-miterlimit="10" x1="660.773" y1="864.437" x2="673.575" y2="864.437"/>
	</g>
	<g>
		<line fill="none" stroke="#F5D235" stroke-miterlimit="10" x1="660.773" y1="653.958" x2="660.773" y2="756.218"/>
		<line fill="none" stroke="#F5D235" stroke-miterlimit="10" x1="673.575" y1="653.958" x2="673.575" y2="756.221"/>
		<line fill="none" stroke="#F5D235" stroke-miterlimit="10" x1="660.773" y1="659.843" x2="673.575" y2="659.843"/>
		<line fill="none" stroke="#F5D235" stroke-miterlimit="10" x1="660.773" y1="667.667" x2="673.575" y2="667.667"/>
		<line fill="none" stroke="#F5D235" stroke-miterlimit="10" x1="660.773" y1="675.488" x2="673.575" y2="675.488"/>
		<line fill="none" stroke="#F5D235" stroke-miterlimit="10" x1="660.773" y1="683.315" x2="673.575" y2="683.315"/>
		<line fill="none" stroke="#F5D235" stroke-miterlimit="10" x1="660.773" y1="691.137" x2="673.575" y2="691.137"/>
		<line fill="none" stroke="#F5D235" stroke-miterlimit="10" x1="660.773" y1="698.961" x2="673.575" y2="698.961"/>
		<line fill="none" stroke="#F5D235" stroke-miterlimit="10" x1="660.773" y1="706.788" x2="673.575" y2="706.788"/>
		<line fill="none" stroke="#F5D235" stroke-miterlimit="10" x1="660.773" y1="714.609" x2="673.575" y2="714.609"/>
		<line fill="none" stroke="#F5D235" stroke-miterlimit="10" x1="660.773" y1="722.437" x2="673.575" y2="722.437"/>
		<line fill="none" stroke="#F5D235" stroke-miterlimit="10" x1="660.773" y1="730.258" x2="673.575" y2="730.258"/>
		<line fill="none" stroke="#F5D235" stroke-miterlimit="10" x1="660.773" y1="738.082" x2="673.575" y2="738.082"/>
		<line fill="none" stroke="#F5D235" stroke-miterlimit="10" x1="660.773" y1="745.906" x2="673.575" y2="745.906"/>
		<line fill="none" stroke="#F5D235" stroke-miterlimit="10" x1="660.773" y1="753.73" x2="673.575" y2="753.73"/>
	</g>
	<g>
		<line fill="none" stroke="#F5D235" stroke-miterlimit="10" x1="693.093" y1="438.986" x2="693.093" y2="542.651"/>
		<line fill="none" stroke="#F5D235" stroke-miterlimit="10" x1="705.107" y1="438.988" x2="705.107" y2="542.653"/>
		<line fill="none" stroke="#F5D235" stroke-miterlimit="10" x1="693.093" y1="444.951" x2="705.107" y2="444.951"/>
		<line fill="none" stroke="#F5D235" stroke-miterlimit="10" x1="693.093" y1="452.885" x2="705.107" y2="452.885"/>
		<line fill="none" stroke="#F5D235" stroke-miterlimit="10" x1="693.093" y1="460.814" x2="705.107" y2="460.814"/>
		<line fill="none" stroke="#F5D235" stroke-miterlimit="10" x1="693.093" y1="468.746" x2="705.107" y2="468.746"/>
		<line fill="none" stroke="#F5D235" stroke-miterlimit="10" x1="693.093" y1="476.677" x2="705.107" y2="476.677"/>
		<line fill="none" stroke="#F5D235" stroke-miterlimit="10" x1="693.093" y1="484.609" x2="705.107" y2="484.609"/>
		<line fill="none" stroke="#F5D235" stroke-miterlimit="10" x1="693.093" y1="492.541" x2="705.107" y2="492.541"/>
		<line fill="none" stroke="#F5D235" stroke-miterlimit="10" x1="693.093" y1="500.471" x2="705.107" y2="500.471"/>
		<line fill="none" stroke="#F5D235" stroke-miterlimit="10" x1="693.093" y1="508.404" x2="705.107" y2="508.404"/>
		<line fill="none" stroke="#F5D235" stroke-miterlimit="10" x1="693.093" y1="516.334" x2="705.107" y2="516.334"/>
		<line fill="none" stroke="#F5D235" stroke-miterlimit="10" x1="693.093" y1="524.268" x2="705.107" y2="524.268"/>
		<line fill="none" stroke="#F5D235" stroke-miterlimit="10" x1="693.093" y1="532.197" x2="705.107" y2="532.197"/>
		<line fill="none" stroke="#F5D235" stroke-miterlimit="10" x1="693.093" y1="540.129" x2="705.107" y2="540.129"/>
	</g>
	<g>
		<line fill="none" stroke="#F5D235" stroke-miterlimit="10" x1="659.413" y1="227.063" x2="659.413" y2="331.764"/>
		<line fill="none" stroke="#F5D235" stroke-miterlimit="10" x1="672.217" y1="227.065" x2="672.217" y2="331.766"/>
		<line fill="none" stroke="#F5D235" stroke-miterlimit="10" x1="659.413" y1="233.087" x2="672.217" y2="233.087"/>
		<line fill="none" stroke="#F5D235" stroke-miterlimit="10" x1="659.413" y1="241.099" x2="672.217" y2="241.099"/>
		<line fill="none" stroke="#F5D235" stroke-miterlimit="10" x1="659.413" y1="249.108" x2="672.217" y2="249.108"/>
		<line fill="none" stroke="#F5D235" stroke-miterlimit="10" x1="659.413" y1="257.12" x2="672.217" y2="257.12"/>
		<line fill="none" stroke="#F5D235" stroke-miterlimit="10" x1="659.413" y1="265.13" x2="672.217" y2="265.13"/>
		<line fill="none" stroke="#F5D235" stroke-miterlimit="10" x1="659.413" y1="273.142" x2="672.217" y2="273.142"/>
		<line fill="none" stroke="#F5D235" stroke-miterlimit="10" x1="659.413" y1="281.153" x2="672.217" y2="281.153"/>
		<line fill="none" stroke="#F5D235" stroke-miterlimit="10" x1="659.413" y1="289.163" x2="672.217" y2="289.163"/>
		<line fill="none" stroke="#F5D235" stroke-miterlimit="10" x1="659.413" y1="297.175" x2="672.217" y2="297.175"/>
		<line fill="none" stroke="#F5D235" stroke-miterlimit="10" x1="659.413" y1="305.184" x2="672.217" y2="305.184"/>
		<line fill="none" stroke="#F5D235" stroke-miterlimit="10" x1="659.413" y1="313.195" x2="672.217" y2="313.195"/>
		<line fill="none" stroke="#F5D235" stroke-miterlimit="10" x1="659.413" y1="321.205" x2="672.217" y2="321.205"/>
		<line fill="none" stroke="#F5D235" stroke-miterlimit="10" x1="659.413" y1="329.217" x2="672.217" y2="329.217"/>
	</g>
	<g>
		<line fill="none" stroke="#F5D235" stroke-miterlimit="10" x1="693.703" y1="867.417" x2="693.703" y2="970.024"/>
		<line fill="none" stroke="#F5D235" stroke-miterlimit="10" x1="705.719" y1="867.419" x2="705.719" y2="970.026"/>
		<line fill="none" stroke="#F5D235" stroke-miterlimit="10" x1="693.703" y1="873.323" x2="705.719" y2="873.323"/>
		<line fill="none" stroke="#F5D235" stroke-miterlimit="10" x1="693.703" y1="881.173" x2="705.719" y2="881.173"/>
		<line fill="none" stroke="#F5D235" stroke-miterlimit="10" x1="693.703" y1="889.022" x2="705.719" y2="889.022"/>
		<line fill="none" stroke="#F5D235" stroke-miterlimit="10" x1="693.703" y1="896.874" x2="705.719" y2="896.874"/>
		<line fill="none" stroke="#F5D235" stroke-miterlimit="10" x1="693.703" y1="904.724" x2="705.719" y2="904.724"/>
		<line fill="none" stroke="#F5D235" stroke-miterlimit="10" x1="693.703" y1="912.574" x2="705.719" y2="912.574"/>
		<line fill="none" stroke="#F5D235" stroke-miterlimit="10" x1="693.703" y1="920.426" x2="705.719" y2="920.426"/>
		<line fill="none" stroke="#F5D235" stroke-miterlimit="10" x1="693.703" y1="928.275" x2="705.719" y2="928.275"/>
		<line fill="none" stroke="#F5D235" stroke-miterlimit="10" x1="693.703" y1="936.127" x2="705.719" y2="936.127"/>
		<line fill="none" stroke="#F5D235" stroke-miterlimit="10" x1="693.703" y1="943.975" x2="705.719" y2="943.975"/>
		<line fill="none" stroke="#F5D235" stroke-miterlimit="10" x1="693.703" y1="951.828" x2="705.719" y2="951.828"/>
		<line fill="none" stroke="#F5D235" stroke-miterlimit="10" x1="693.703" y1="959.676" x2="705.719" y2="959.676"/>
		<line fill="none" stroke="#F5D235" stroke-miterlimit="10" x1="693.703" y1="967.529" x2="705.719" y2="967.529"/>
	</g>
	<polygon fill="#F6DD34" points="715.736,973.313 715.71,946.162 720.136,946.154 720.165,973.307 	"/>
	
		<rect x="725.809" y="943.899" transform="matrix(-0.8484 0.5293 -0.5293 -0.8484 1852.3372 1380.7533)" fill="#F6DD34" width="5.334" height="23.381"/>
	<polygon fill="#F6DD34" points="650.624,972.366 650.651,945.215 646.225,945.207 646.195,972.359 	"/>
	
		<rect x="635.218" y="942.952" transform="matrix(0.8484 0.5293 -0.5293 0.8484 601.9836 -192.9421)" fill="#F6DD34" width="5.334" height="23.381"/>
	
		<rect x="641.209" y="890.567" transform="matrix(0.8093 -0.5874 0.5874 0.8093 -394.583 571.5244)" fill="#F5D235" width="83.357" height="5.749"/>
	
		<rect x="641.209" y="890.567" transform="matrix(-0.8093 -0.5874 0.5874 -0.8093 710.7155 2017.6292)" fill="#F5D235" width="83.356" height="5.75"/>
	
		<rect x="641.209" y="836.752" transform="matrix(0.8093 -0.5874 0.5874 0.8093 -362.9718 561.2615)" fill="#F5D235" width="83.357" height="5.749"/>
	
		<rect x="641.209" y="836.752" transform="matrix(-0.8093 -0.5874 0.5874 -0.8093 742.3269 1920.2634)" fill="#F5D235" width="83.356" height="5.75"/>
	
		<rect x="641.209" y="783.036" transform="matrix(0.8093 -0.5874 0.5874 0.8093 -331.418 551.0171)" fill="#F5D235" width="83.357" height="5.749"/>
	
		<rect x="641.209" y="783.035" transform="matrix(-0.8093 -0.5874 0.5874 -0.8093 773.8811 1823.0745)" fill="#F5D235" width="83.356" height="5.75"/>
	
		<rect x="641.209" y="729.222" transform="matrix(0.8093 -0.5874 0.5874 0.8093 -299.8052 540.7448)" fill="#F5D235" width="83.357" height="5.749"/>
	
		<rect x="641.209" y="729.221" transform="matrix(-0.8093 -0.5874 0.5874 -0.8093 805.5018 1725.7085)" fill="#F5D235" width="83.356" height="5.75"/>
	
		<rect x="641.209" y="675.406" transform="matrix(0.8093 -0.5874 0.5874 0.8093 -268.1949 530.4908)" fill="#F5D235" width="83.357" height="5.749"/>
	
		<rect x="641.209" y="675.405" transform="matrix(-0.8093 -0.5874 0.5874 -0.8093 837.1046 1628.3413)" fill="#F5D235" width="83.356" height="5.75"/>
	
		<rect x="641.209" y="621.591" transform="matrix(0.8093 -0.5874 0.5874 0.8093 -236.5838 520.2278)" fill="#F5D235" width="83.357" height="5.749"/>
	
		<rect x="641.209" y="621.591" transform="matrix(-0.8093 -0.5874 0.5874 -0.8093 868.7161 1530.9757)" fill="#F5D235" width="83.356" height="5.75"/>
	
		<rect x="641.209" y="567.776" transform="matrix(0.8093 -0.5874 0.5874 0.8093 -204.972 509.9646)" fill="#F5D235" width="83.357" height="5.749"/>
	
		<rect x="641.209" y="567.031" transform="matrix(-0.8093 -0.5874 0.5874 -0.8093 900.7653 1432.2618)" fill="#F5D235" width="83.356" height="5.75"/>
	
		<rect x="641.209" y="513.218" transform="matrix(0.8093 -0.5874 0.5874 0.8093 -172.9238 499.5517)" fill="#F5D235" width="83.357" height="5.749"/>
	
		<rect x="641.209" y="513.217" transform="matrix(-0.8093 -0.5874 0.5874 -0.8093 932.3843 1334.8948)" fill="#F5D235" width="83.356" height="5.75"/>
	
		<rect x="641.209" y="459.402" transform="matrix(0.8093 -0.5874 0.5874 0.8093 -141.312 489.2965)" fill="#F5D235" width="83.357" height="5.749"/>
	
		<rect x="641.209" y="459.401" transform="matrix(-0.8093 -0.5874 0.5874 -0.8093 963.9888 1237.5288)" fill="#F5D235" width="83.356" height="5.75"/>
	
		<rect x="641.209" y="405.587" transform="matrix(0.8093 -0.5874 0.5874 0.8093 -109.7008 479.0335)" fill="#F5D235" width="83.357" height="5.749"/>
	
		<rect x="641.209" y="405.587" transform="matrix(-0.8093 -0.5874 0.5874 -0.8093 995.6003 1140.1631)" fill="#F5D235" width="83.356" height="5.75"/>
	
		<rect x="641.209" y="351.77" transform="matrix(0.8093 -0.5874 0.5874 0.8093 -78.0879 468.7699)" fill="#F5D235" width="83.357" height="5.749"/>
	
		<rect x="641.209" y="352.514" transform="matrix(-0.8093 -0.5874 0.5874 -0.8093 1026.783 1044.1351)" fill="#F5D235" width="83.356" height="5.749"/>
	
		<rect x="641.209" y="297.955" transform="matrix(0.8093 -0.5874 0.5874 0.8093 -46.4767 458.5069)" fill="#F5D235" width="83.357" height="5.749"/>
	
		<rect x="641.209" y="297.955" transform="matrix(-0.8093 -0.5874 0.5874 -0.8093 1058.825 945.4264)" fill="#F5D235" width="83.356" height="5.75"/>
	<rect x="647.603" y="863.765" fill="#F6DD34" width="70.568" height="5.744"/>
	<rect x="647.603" y="648.505" fill="#F6DD34" width="70.568" height="5.743"/>
	<rect x="647.603" y="756.135" fill="#F6DD34" width="70.568" height="5.744"/>
	<rect x="647.603" y="540.873" fill="#F6DD34" width="70.568" height="5.743"/>
	<rect x="647.603" y="433.242" fill="#F6DD34" width="70.568" height="5.744"/>
	<rect x="647.603" y="325.611" fill="#F6DD34" width="70.568" height="5.744"/>
	<rect x="715.71" y="263.591" fill="#F9ED32" width="4.923" height="684.076"/>
	<rect x="645.141" y="263.591" fill="#F9ED32" width="4.924" height="684.076"/>
	<rect x="641.09" y="943.206" fill="#F6DD34" width="83.595" height="8.923"/>
	<rect x="648.423" y="940.692" fill="#BCBEC0" width="68.928" height="13.95"/>
	<rect x="648.423" y="925.923" fill="#BCBEC0" width="68.928" height="13.949"/>
	<rect x="648.425" y="911.152" fill="#BCBEC0" width="68.928" height="13.949"/>
	<rect x="724.685" y="940.692" fill="#BCBEC0" width="18.964" height="13.95"/>
	<rect x="724.685" y="925.923" fill="#BCBEC0" width="18.964" height="13.949"/>
	<rect x="724.685" y="911.152" fill="#BCBEC0" width="18.964" height="13.949"/>
	<rect x="621.893" y="940.692" fill="#BCBEC0" width="19.197" height="13.95"/>
	<rect x="621.893" y="925.923" fill="#BCBEC0" width="19.197" height="13.949"/>
	<rect x="621.893" y="911.152" fill="#BCBEC0" width="19.197" height="13.949"/>
	<rect x="648.423" y="955.258" fill="#BCBEC0" width="68.928" height="13.949"/>
	<rect x="724.685" y="955.258" fill="#BCBEC0" width="18.964" height="13.949"/>
	<rect x="621.893" y="955.258" fill="#BCBEC0" width="19.197" height="13.949"/>
	<rect x="621.893" y="925.102" fill="#808285" width="19.197" height="0.821"/>
	<rect x="621.893" y="939.872" fill="#808285" width="19.197" height="0.82"/>
	<rect x="621.893" y="954.643" fill="#808285" width="19.197" height="0.82"/>
	<rect x="724.685" y="925.102" fill="#808285" width="18.964" height="0.821"/>
	<rect x="724.685" y="939.872" fill="#808285" width="18.964" height="0.82"/>
	<rect x="724.685" y="954.643" fill="#808285" width="18.964" height="0.82"/>
	<rect x="648.423" y="925.102" fill="#808285" width="68.928" height="0.821"/>
	<rect x="648.423" y="939.872" fill="#808285" width="68.928" height="0.82"/>
	<rect x="648.423" y="954.643" fill="#808285" width="68.928" height="0.82"/>
	
		<rect x="602.704" y="950.456" transform="matrix(0.2727 0.9621 -0.9621 0.2727 1367.9918 95.7371)" fill="#F9ED32" width="35.939" height="4.463"/>
	
		<rect x="727.319" y="949.898" transform="matrix(-0.2727 0.9621 -0.9621 -0.2727 1864.5712 494.7286)" fill="#F9ED32" width="35.94" height="4.463"/>
	
		<rect x="638.183" y="949.898" transform="matrix(-0.0018 1 -1 -0.0018 1609.4751 297.711)" fill="#F9ED32" width="35.94" height="4.463"/>
	
		<rect x="691.655" y="949.897" transform="matrix(-0.0018 1 -1 -0.0018 1663.0645 244.2643)" fill="#F9ED32" width="35.94" height="4.464"/>
	<rect x="615.795" y="964.745" fill="#F6DD34" width="134.186" height="8.924"/>
	<rect x="611.038" y="932.077" fill="#F6DD34" width="143.701" height="4.461"/>
	<g>
		<line fill="none" stroke="#F5D235" stroke-miterlimit="10" x1="693.093" y1="544.785" x2="693.093" y2="648.503"/>
		<line fill="none" stroke="#F5D235" stroke-miterlimit="10" x1="705.107" y1="544.786" x2="705.107" y2="648.505"/>
		<line fill="none" stroke="#F5D235" stroke-miterlimit="10" x1="693.093" y1="550.753" x2="705.107" y2="550.753"/>
		<line fill="none" stroke="#F5D235" stroke-miterlimit="10" x1="693.093" y1="558.689" x2="705.107" y2="558.689"/>
		<line fill="none" stroke="#F5D235" stroke-miterlimit="10" x1="693.093" y1="566.624" x2="705.107" y2="566.624"/>
		<line fill="none" stroke="#F5D235" stroke-miterlimit="10" x1="693.093" y1="574.561" x2="705.107" y2="574.561"/>
		<line fill="none" stroke="#F5D235" stroke-miterlimit="10" x1="693.093" y1="582.495" x2="705.107" y2="582.495"/>
		<line fill="none" stroke="#F5D235" stroke-miterlimit="10" x1="693.093" y1="590.432" x2="705.107" y2="590.432"/>
		<line fill="none" stroke="#F5D235" stroke-miterlimit="10" x1="693.093" y1="598.366" x2="705.107" y2="598.366"/>
		<line fill="none" stroke="#F5D235" stroke-miterlimit="10" x1="693.093" y1="606.302" x2="705.107" y2="606.302"/>
		<line fill="none" stroke="#F5D235" stroke-miterlimit="10" x1="693.093" y1="614.238" x2="705.107" y2="614.238"/>
		<line fill="none" stroke="#F5D235" stroke-miterlimit="10" x1="693.093" y1="622.173" x2="705.107" y2="622.173"/>
		<line fill="none" stroke="#F5D235" stroke-miterlimit="10" x1="693.093" y1="630.109" x2="705.107" y2="630.109"/>
		<line fill="none" stroke="#F5D235" stroke-miterlimit="10" x1="693.093" y1="638.044" x2="705.107" y2="638.044"/>
		<line fill="none" stroke="#F5D235" stroke-miterlimit="10" x1="693.093" y1="645.98" x2="705.107" y2="645.98"/>
	</g>
	<g>
		<line fill="none" stroke="#F5D235" stroke-miterlimit="10" x1="659.413" y1="331.253" x2="659.413" y2="433.797"/>
		<line fill="none" stroke="#F5D235" stroke-miterlimit="10" x1="672.217" y1="331.255" x2="672.217" y2="433.797"/>
		<line fill="none" stroke="#F5D235" stroke-miterlimit="10" x1="659.413" y1="337.153" x2="672.217" y2="337.153"/>
		<line fill="none" stroke="#F5D235" stroke-miterlimit="10" x1="659.413" y1="345" x2="672.217" y2="345"/>
		<line fill="none" stroke="#F5D235" stroke-miterlimit="10" x1="659.413" y1="352.844" x2="672.217" y2="352.844"/>
		<line fill="none" stroke="#F5D235" stroke-miterlimit="10" x1="659.413" y1="360.69" x2="672.217" y2="360.69"/>
		<line fill="none" stroke="#F5D235" stroke-miterlimit="10" x1="659.413" y1="368.535" x2="672.217" y2="368.535"/>
		<line fill="none" stroke="#F5D235" stroke-miterlimit="10" x1="659.413" y1="376.382" x2="672.217" y2="376.382"/>
		<line fill="none" stroke="#F5D235" stroke-miterlimit="10" x1="659.413" y1="384.229" x2="672.217" y2="384.229"/>
		<line fill="none" stroke="#F5D235" stroke-miterlimit="10" x1="659.413" y1="392.072" x2="672.217" y2="392.072"/>
		<line fill="none" stroke="#F5D235" stroke-miterlimit="10" x1="659.413" y1="399.919" x2="672.217" y2="399.919"/>
		<line fill="none" stroke="#F5D235" stroke-miterlimit="10" x1="659.413" y1="407.764" x2="672.217" y2="407.764"/>
		<line fill="none" stroke="#F5D235" stroke-miterlimit="10" x1="659.413" y1="415.61" x2="672.217" y2="415.61"/>
		<line fill="none" stroke="#F5D235" stroke-miterlimit="10" x1="659.413" y1="423.455" x2="672.217" y2="423.455"/>
		<line fill="none" stroke="#F5D235" stroke-miterlimit="10" x1="659.413" y1="431.3" x2="672.217" y2="431.3"/>
	</g>
</g>
<g id="SignE">
	
	<animateTransform 
		attributeType="xml"
						attributeName="transform"
						type="rotate"
						dur="7.5"
						repeatCount="indefinite"
						values="0 382.173 250.375; 3 382.173 250.375; 6 382.173 250.375; 9 382.173 250.375; 11 382.173 250.375; 12 382.173 250.375; 12.5 382.173 250.375;
						12.5 382.173 250.375; 12 382.173 250.375; 11 382.173 250.375; 9 382.173 250.375; 6 382.173 250.375; 3 382.173 250.375;
						0 382.173 250.375; -3 382.173 250.375; -6 382.173 250.375; -9 382.173 250.375; -11 382.173 250.375; -12 382.173 250.375; -12.5 382.173 250.375;
						-12.5 382.173 250.375; -12 382.173 250.375; -11 382.173 250.375; -9 382.173 250.375; -6 382.173 250.375; -3 382.173 250.375; -0 382.173 250.375"
		/>

		<line id="VCable" fill="none" stroke="#BCBEC0" stroke-width="2" stroke-miterlimit="10" x1="382.173" y1="250.375" x2="382.173" y2="523.119"/>
	<path fill="#F5D235" d="M380.815,528.663c0,0,0.714,4.074-2.253,6.738c-2.969,2.653-3.073,7.937-1.539,10.81
		c1.533,2.87,5.523,4.467,9.728,1.412c3.234-2.343,2.625-4.027,2.625-4.027l-3.126,2.569c0,0-7.784,3.565-7.697-4.644
		c0.044-3.729,5.675-4.968,3.889-12.621"/>
	<polygon fill="#F9ED32" points="387.504,531.12 375.709,531.12 373.001,515.119 390.214,515.119 	"/>
	<path fill="#A7A9AC" d="M389.429,544.211c-0.089,0.686-0.581,1.894-2.596,3.37c1.615,0.552,2.648,1.393,2.648,2.335
		c0,1.661-3.212,3.011-7.172,3.011c-3.961,0-7.172-1.35-7.172-3.011c0-1.595,2.955-2.896,6.69-3.001
		c0.126-0.039,0.222-0.042,0.222-0.042c0.202,0.027,0.405,0.034,0.608,0.04c0.083,0.001,0.168,0.002,0.251,0.005
		c1.751-0.026,3.369-0.753,3.369-0.753l2.377-1.954H186.51v197.108h381.28V544.211H389.429z"/>
	<rect x="192.436" y="554.4" fill="#E6E7E8" width="369.428" height="178.438"/>
	<g id="Text">
		<path d="M301.554,589.225h6.404v19.087c0,3.029,0.079,4.993,0.238,5.891c0.274,1.442,0.927,2.6,1.958,3.474
			c1.031,0.873,2.441,1.31,4.23,1.31c1.817,0,3.188-0.412,4.111-1.237c0.923-0.825,1.478-1.84,1.666-3.041
			c0.187-1.202,0.281-3.198,0.281-5.986v-19.496h6.404v18.511c0,4.23-0.173,7.22-0.52,8.967s-0.984,3.221-1.915,4.423
			c-0.931,1.202-2.175,2.16-3.732,2.873s-3.591,1.069-6.101,1.069c-3.029,0-5.326-0.389-6.891-1.165
			c-1.565-0.777-2.802-1.787-3.711-3.029s-1.507-2.544-1.795-3.906c-0.418-2.02-0.627-5.001-0.627-8.943V589.225z"/>
		<path d="M333.661,624.467v-35.242h6.231l12.981,23.535v-23.535h5.95v35.242h-6.426l-12.787-22.982v22.982H333.661z"/>
		<path d="M365.574,589.225h11.705c2.64,0,4.652,0.225,6.037,0.673c1.86,0.609,3.454,1.69,4.781,3.245s2.337,3.458,3.029,5.71
			s1.039,5.028,1.039,8.329c0,2.901-0.325,5.401-0.974,7.501c-0.793,2.564-1.926,4.64-3.397,6.227
			c-1.111,1.202-2.611,2.14-4.5,2.813c-1.414,0.497-3.303,0.745-5.668,0.745h-12.051V589.225z M371.979,595.187v23.343h4.781
			c1.789,0,3.08-0.112,3.873-0.337c1.039-0.288,1.9-0.777,2.585-1.467c0.685-0.688,1.244-1.822,1.677-3.401
			c0.433-1.578,0.649-3.729,0.649-6.455c0-2.724-0.217-4.815-0.649-6.274c-0.433-1.458-1.039-2.596-1.817-3.413
			s-1.767-1.37-2.964-1.659c-0.895-0.224-2.647-0.336-5.258-0.336H371.979z"/>
		<path d="M397.596,624.467v-35.242h23.519v5.962H404v7.813h15.924v5.938H404v9.593h17.72v5.938H397.596z"/>
		<path d="M427.172,624.467v-35.242h13.479c3.39,0,5.853,0.316,7.389,0.949s2.766,1.759,3.689,3.378
			c0.923,1.618,1.385,3.47,1.385,5.553c0,2.645-0.7,4.828-2.099,6.551c-1.399,1.724-3.491,2.81-6.274,3.258
			c1.385,0.897,2.527,1.883,3.429,2.957c0.901,1.073,2.117,2.98,3.646,5.722l3.873,6.875h-7.659l-4.63-7.669
			c-1.644-2.74-2.769-4.467-3.375-5.181c-0.606-0.713-1.248-1.202-1.926-1.466c-0.678-0.265-1.752-0.397-3.224-0.397h-1.298v14.713
			H427.172z M433.576,604.129h4.738c3.073,0,4.991-0.145,5.755-0.433c0.764-0.288,1.363-0.785,1.796-1.49s0.649-1.587,0.649-2.645
			c0-1.186-0.285-2.144-0.854-2.873c-0.57-0.729-1.374-1.189-2.413-1.382c-0.519-0.08-2.077-0.12-4.673-0.12h-4.998V604.129z"/>
		<path d="M222.203,670.59l6.21,2.188c-0.952,3.846-2.535,6.703-4.75,8.57c-2.214,1.867-5.023,2.8-8.427,2.8
			c-4.212,0-7.674-1.599-10.386-4.796s-4.067-7.568-4.067-13.113c0-5.866,1.363-10.422,4.089-13.667s6.31-4.868,10.753-4.868
			c3.88,0,7.032,1.274,9.455,3.822c1.442,1.507,2.524,3.671,3.245,6.491l-6.339,1.683c-0.375-1.827-1.157-3.27-2.347-4.327
			s-2.636-1.587-4.338-1.587c-2.351,0-4.259,0.938-5.723,2.813c-1.464,1.876-2.196,4.913-2.196,9.111
			c0,4.456,0.721,7.629,2.164,9.521c1.442,1.891,3.317,2.836,5.625,2.836c1.702,0,3.166-0.601,4.392-1.803
			C220.79,675.062,221.669,673.171,222.203,670.59z"/>
		<path d="M232.61,666.143c0-3.59,0.483-6.603,1.449-9.039c0.721-1.794,1.706-3.405,2.954-4.832c1.248-1.426,2.614-2.483,4.1-3.173
			c1.976-0.93,4.255-1.395,6.837-1.395c4.673,0,8.413,1.61,11.218,4.832c2.805,3.222,4.208,7.701,4.208,13.438
			c0,5.689-1.392,10.142-4.176,13.354s-6.505,4.819-11.164,4.819c-4.717,0-8.467-1.599-11.25-4.796
			C234.002,676.155,232.61,671.753,232.61,666.143z M239.209,665.902c0,3.991,0.83,7.016,2.488,9.075s3.765,3.089,6.318,3.089
			c2.553,0,4.648-1.021,6.285-3.064c1.637-2.044,2.456-5.108,2.456-9.195c0-4.039-0.797-7.052-2.391-9.039
			c-1.594-1.987-3.71-2.981-6.35-2.981s-4.768,1.006-6.383,3.018C240.017,658.814,239.209,661.848,239.209,665.902z"/>
		<path d="M268.439,683.548v-35.242h6.231l12.981,23.535v-23.535h5.95v35.242h-6.426l-12.787-22.982v22.982H268.439z"/>
		<path d="M298.751,672.081l6.231-0.674c0.375,2.324,1.136,4.031,2.283,5.121c1.147,1.09,2.694,1.635,4.641,1.635
			c2.063,0,3.617-0.484,4.663-1.455c1.045-0.969,1.568-2.103,1.568-3.401c0-0.833-0.22-1.542-0.66-2.127
			c-0.44-0.585-1.208-1.094-2.304-1.527c-0.75-0.288-2.459-0.801-5.128-1.538c-3.433-0.945-5.842-2.107-7.227-3.486
			c-1.947-1.938-2.921-4.303-2.921-7.092c0-1.794,0.458-3.474,1.374-5.036s2.236-2.752,3.959-3.569s3.804-1.227,6.242-1.227
			c3.981,0,6.978,0.97,8.99,2.909c2.012,1.939,3.068,4.527,3.169,7.765l-6.404,0.313c-0.274-1.811-0.862-3.113-1.763-3.906
			c-0.902-0.794-2.254-1.19-4.057-1.19c-1.861,0-3.318,0.425-4.371,1.274c-0.678,0.545-1.017,1.274-1.017,2.188
			c0,0.834,0.317,1.547,0.952,2.14c0.808,0.754,2.77,1.539,5.885,2.356c3.116,0.816,5.42,1.662,6.913,2.536
			c1.493,0.873,2.661,2.067,3.505,3.582c0.844,1.514,1.266,3.386,1.266,5.613c0,2.019-0.505,3.91-1.515,5.673
			c-1.01,1.764-2.438,3.073-4.284,3.931c-1.847,0.857-4.147,1.286-6.902,1.286c-4.01,0-7.089-1.029-9.239-3.089
			S299.169,676.023,298.751,672.081z"/>
		<path d="M337.069,683.548v-29.28h-9.412v-5.962h25.206v5.962h-9.39v29.28H337.069z"/>
		<path d="M357.017,683.548v-35.242h13.479c3.39,0,5.853,0.316,7.389,0.949s2.766,1.759,3.689,3.378
			c0.923,1.618,1.385,3.47,1.385,5.553c0,2.645-0.7,4.828-2.099,6.551c-1.399,1.724-3.491,2.81-6.274,3.258
			c1.385,0.897,2.527,1.883,3.429,2.957c0.901,1.073,2.117,2.98,3.646,5.722l3.873,6.875h-7.659l-4.63-7.669
			c-1.644-2.74-2.769-4.467-3.375-5.181c-0.606-0.713-1.248-1.202-1.926-1.466c-0.678-0.265-1.752-0.397-3.224-0.397h-1.298v14.713
			H357.017z M363.421,663.21h4.738c3.073,0,4.991-0.145,5.755-0.433c0.764-0.288,1.363-0.785,1.796-1.49s0.649-1.587,0.649-2.645
			c0-1.186-0.285-2.144-0.854-2.873c-0.57-0.729-1.374-1.189-2.413-1.382c-0.519-0.08-2.077-0.12-4.673-0.12h-4.998V663.21z"/>
		<path d="M388.952,648.306h6.404v19.087c0,3.029,0.079,4.993,0.238,5.891c0.274,1.442,0.927,2.6,1.958,3.474
			c1.031,0.873,2.441,1.31,4.23,1.31c1.817,0,3.188-0.412,4.111-1.237c0.923-0.825,1.478-1.84,1.666-3.041
			c0.187-1.202,0.281-3.198,0.281-5.986v-19.496h6.404v18.511c0,4.23-0.173,7.22-0.52,8.967s-0.984,3.221-1.915,4.423
			c-0.931,1.202-2.175,2.16-3.732,2.873s-3.591,1.069-6.101,1.069c-3.029,0-5.326-0.389-6.891-1.165
			c-1.565-0.777-2.802-1.787-3.711-3.029s-1.507-2.544-1.795-3.906c-0.418-2.02-0.627-5.001-0.627-8.943V648.306z"/>
		<path d="M441.289,670.59l6.21,2.188c-0.952,3.846-2.535,6.703-4.75,8.57c-2.214,1.867-5.023,2.8-8.427,2.8
			c-4.212,0-7.674-1.599-10.386-4.796s-4.067-7.568-4.067-13.113c0-5.866,1.363-10.422,4.089-13.667s6.31-4.868,10.753-4.868
			c3.88,0,7.032,1.274,9.455,3.822c1.442,1.507,2.524,3.671,3.245,6.491l-6.339,1.683c-0.375-1.827-1.157-3.27-2.347-4.327
			s-2.636-1.587-4.338-1.587c-2.351,0-4.259,0.938-5.723,2.813c-1.464,1.876-2.196,4.913-2.196,9.111
			c0,4.456,0.721,7.629,2.164,9.521c1.442,1.891,3.317,2.836,5.625,2.836c1.702,0,3.166-0.601,4.392-1.803
			C439.875,675.062,440.755,673.171,441.289,670.59z"/>
		<path d="M460.134,683.548v-29.28h-9.412v-5.962h25.206v5.962h-9.39v29.28H460.134z"/>
		<path d="M479.866,683.548v-35.242h6.404v35.242H479.866z"/>
		<path d="M491.074,666.143c0-3.59,0.483-6.603,1.449-9.039c0.721-1.794,1.706-3.405,2.954-4.832c1.248-1.426,2.614-2.483,4.1-3.173
			c1.976-0.93,4.255-1.395,6.837-1.395c4.672,0,8.412,1.61,11.217,4.832c2.807,3.222,4.209,7.701,4.209,13.438
			c0,5.689-1.393,10.142-4.176,13.354s-6.506,4.819-11.164,4.819c-4.717,0-8.467-1.599-11.25-4.796
			C492.465,676.155,491.074,671.753,491.074,666.143z M497.672,665.902c0,3.991,0.83,7.016,2.488,9.075
			c1.658,2.06,3.765,3.089,6.318,3.089s4.648-1.021,6.285-3.064c1.637-2.044,2.455-5.108,2.455-9.195
			c0-4.039-0.797-7.052-2.391-9.039s-3.711-2.981-6.35-2.981c-2.641,0-4.768,1.006-6.383,3.018
			C498.48,658.814,497.672,661.848,497.672,665.902z"/>
		<path d="M526.902,683.548v-35.242h6.23l12.982,23.535v-23.535h5.949v35.242h-6.426l-12.787-22.982v22.982H526.902z"/>
	</g>
	<g id="Logo">
		<circle fill="#FFFFFF" cx="540.646" cy="575.186" r="15.737"/>
		<polygon points="551.185,571.063 526.692,571.063 528.718,566.875 553.21,566.875 		"/>
		<polygon points="542.376,567.706 542.376,586.583 537.724,589.909 537.724,567.706 		"/>
	</g>
</g>
<line id="HCable" fill="none" stroke="#A7A9AC" stroke-width="2" stroke-miterlimit="10" x1="391.686" y1="246.217" x2="645.141" y2="246.217"/>
<g id="BaseCable">
	<rect x="356.147" y="240.44" fill="#F6DD34" width="51.688" height="6.053"/>
	<rect x="364.569" y="246.493" fill="#F5D235" width="35.205" height="7.764"/>
</g>
<g>
	<rect x="659.802" y="214.018" fill="#E6E7E8" width="40.461" height="25.542"/>
	
		<rect x="675.116" y="65.375" transform="matrix(0.7341 0.679 -0.679 0.7341 244.1558 -434.9448)" fill="#F5D235" width="4.648" height="57.809"/>
	
		<rect x="684.138" y="65.375" transform="matrix(-0.7341 0.679 -0.679 -0.7341 1254.41 -302.6504)" fill="#F5D235" width="4.648" height="57.809"/>
	
		<rect x="672.373" y="104.212" transform="matrix(0.7341 0.679 -0.679 0.7341 280.0771 -418.7302)" fill="#F5D235" width="4.648" height="88.083"/>
	
		<rect x="686.696" y="104.212" transform="matrix(-0.7341 0.679 -0.679 -0.7341 1295.4976 -210.7924)" fill="#F5D235" width="4.648" height="88.083"/>
	<line fill="none" stroke="#BCBEC0" stroke-width="2" stroke-miterlimit="10" x1="115.78" y1="181.628" x2="674.313" y2="29.414"/>
	<line fill="none" stroke="#BCBEC0" stroke-width="2" stroke-miterlimit="10" x1="687.986" y1="29.065" x2="951.583" y2="207.492"/>
	<rect x="866.344" y="212.068" fill="#BCBEC0" width="13.95" height="68.928"/>
	<rect x="881.114" y="212.068" fill="#BCBEC0" width="13.949" height="68.928"/>
	<rect x="895.884" y="212.07" fill="#BCBEC0" width="13.95" height="68.927"/>
	<rect x="895.063" y="212.068" fill="#808285" width="0.82" height="68.928"/>
	<rect x="880.294" y="212.068" fill="#808285" width="0.82" height="68.928"/>
	<rect x="910.654" y="212.067" fill="#BCBEC0" width="13.95" height="68.928"/>
	<rect x="909.834" y="212.069" fill="#808285" width="0.82" height="68.928"/>
	
		<rect x="706.586" y="208.953" transform="matrix(0.7373 -0.6756 0.6756 0.7373 54.2373 561.9854)" fill="#F5D235" width="86.196" height="4.61"/>
	
		<rect x="639.923" y="208.953" transform="matrix(-0.7373 -0.6756 0.6756 -0.7373 1043.874 828.4552)" fill="#F5D235" width="86.196" height="4.61"/>
	
		<rect x="574.154" y="208.953" transform="matrix(0.7373 -0.6756 0.6756 0.7373 19.4421 472.5111)" fill="#F5D235" width="86.196" height="4.61"/>
	
		<rect x="507.491" y="208.953" transform="matrix(-0.7373 -0.6756 0.6756 -0.7373 813.8035 738.9858)" fill="#F5D235" width="86.196" height="4.61"/>
	
		<rect x="440.828" y="208.953" transform="matrix(0.7373 -0.6756 0.6756 0.7373 -15.5856 382.4374)" fill="#F5D235" width="86.196" height="4.61"/>
	
		<rect x="374.166" y="209.122" transform="matrix(-0.7373 -0.6756 0.6756 -0.7373 582.0658 649.2058)" fill="#F5D235" width="86.195" height="4.61"/>
	
		<rect x="307.503" y="208.953" transform="matrix(0.7373 -0.6756 0.6756 0.7373 -50.613 292.3643)" fill="#F5D235" width="86.196" height="4.61"/>
	
		<rect x="240.84" y="209.122" transform="matrix(-0.7373 -0.6756 0.6756 -0.7373 350.4446 559.132)" fill="#F5D235" width="86.196" height="4.61"/>
	
		<rect x="174.177" y="208.952" transform="matrix(0.7373 -0.6756 0.6756 0.7373 -85.6407 202.2929)" fill="#F5D235" width="86.196" height="4.611"/>
	
		<rect x="107.514" y="208.953" transform="matrix(-0.7373 -0.6756 0.6756 -0.7373 118.93 468.7654)" fill="#F5D235" width="86.196" height="4.61"/>
	<rect x="247.804" y="182.162" fill="#F5D235" width="4.649" height="58.362"/>
	<rect x="114.956" y="182.078" fill="#F5D235" width="4.649" height="58.362"/>
	<rect x="381.607" y="182.078" fill="#F5D235" width="4.649" height="58.362"/>
	<rect x="514.933" y="182.078" fill="#F5D235" width="4.649" height="58.363"/>
	<rect x="647.364" y="182.078" fill="#F5D235" width="4.649" height="58.363"/>
	<rect x="780.689" y="182.162" fill="#F5D235" width="4.649" height="58.362"/>
	<polygon fill="#F6DD34" points="724.325,269.335 640.73,269.335 645.412,260.411 719.645,260.411 	"/>
	<rect x="653.122" y="251.924" fill="#F6DD34" width="59.531" height="8.487"/>
	<rect x="51.21" y="238.063" fill="#F9ED32" width="799.435" height="4.924"/>
	<polygon fill="#F6DD34" points="719.29,251.924 646.484,251.924 641.09,243 724.685,243 	"/>
	<rect x="115.009" y="179.7" fill="#F9ED32" width="671.632" height="4.924"/>
	<polygon fill="#F9ED32" points="115.296,179.868 118.573,183.543 51.958,242.986 44.542,242.986 	"/>
	<polygon fill="#F9ED32" points="786.291,179.7 783.015,183.375 849.63,242.818 857.045,242.818 	"/>
	<polygon fill="#F9ED32" points="943.778,227.02 836.969,227.02 850.232,242.986 943.778,242.986 	"/>
	
		<rect x="942.001" y="203.771" transform="matrix(-0.9142 -0.4053 0.4053 -0.9142 1720.7556 804.6675)" fill="#F9ED32" width="7.111" height="32.822"/>
	<polygon fill="#F9ED32" points="642.166,180.577 647.664,181.703 677.439,36.474 673.234,29.065 	"/>
	<polygon fill="#F9ED32" points="717.415,181.229 722.89,180.005 689.15,29.065 684.706,34.899 	"/>
	<path fill="#F5D235" d="M689.986,28.267c-1.897-2.479-15.189-2.547-16.903,0c-1.713,2.547-9.805,43.9-9.805,43.9h36.515
		C699.793,72.167,691.885,30.746,689.986,28.267z M677.369,29.531h8.335l-1.978,10.257h-4.382L677.369,29.531z M673.145,67.075
		l3.888-21.953h9.009l3.888,21.953H673.145z"/>
	<rect x="864.419" y="215.72" fill="#6D6E71" width="61.543" height="3.18"/>
	<rect x="864.166" y="221.464" fill="#6D6E71" width="61.542" height="3.18"/>
	<polygon fill="#D1D3D4" points="620.865,207.99 620.865,255.185 638.75,286.932 678.51,286.932 678.51,207.99 	"/>
	<rect x="623.574" y="211.343" fill="#F1F2F2" width="32.069" height="31.657"/>
	<polygon fill="#F1F2F2" points="623.574,246.217 623.574,255.087 636.568,277.874 655.644,277.874 655.644,246.217 	"/>
	<polygon fill="#FFFFFF" points="655.644,243 655.644,223.982 635.333,243 	"/>
	<polygon fill="#FFFFFF" points="631.895,246.217 623.574,254.009 623.574,255.087 630.917,267.965 654.144,246.217 	"/>
</g>
</svg>
